 <svg
  xmlns="http://www.w3.org/2000/svg"
  className="absolute"
  aria-hidden="true"
  fill="currentColor"
  viewBox="0 0 60 60"
>
  <g data-name="Layer 2">
    <g data-name="Layer 1">
      <path fill="none" d="M0 0h60v60H0z" />
      <path
        d="M14.57 35.37l-2 7.38-7.22.15a28.43 28.43 0 01-.21-26.49l6.43 1.18L14.42 24a17 17 0 00.15 11.4z"
        fill="#f9bb16"
      />
      <path
        d="M58.24 24.16a28.46 28.46 0 01-.12 11.22 28.37 28.37 0 01-10 16.2L40 51.16 38.89 44a16.85 16.85 0 007.27-8.63H31V24.16h27.24z"
        fill="#6287c5"
      />
      <path
        d="M48.13 51.58A28.37 28.37 0 015.38 42.9l9.19-7.53A16.87 16.87 0 0038.89 44z"
        fill="#2fb44a"
      />
      <path
        d="M48.48 7.62l-9.19 7.52A16.87 16.87 0 0014.42 24l-9.25-7.59a28.38 28.38 0 0143.31-8.79z"
        fill="#ef4438"
      />
    </g>
  </g>
</svg>